<mxfile host="app.diagrams.net" modified="2023-11-29T13:29:31.826Z" agent="Mozilla/5.0 (Macintosh; Intel Mac OS X 10_15_7) AppleWebKit/537.36 (KHTML, like Gecko) Chrome/119.0.0.0 Safari/537.36" etag="gyq0PhkMHAqgWBs-xu2P" version="22.1.4" type="github">
  <diagram name="Pagina-1" id="cPsydGuDMJtXrXXvzofN">
    <mxGraphModel dx="977" dy="620" grid="1" gridSize="10" guides="1" tooltips="1" connect="1" arrows="1" fold="1" page="1" pageScale="1" pageWidth="827" pageHeight="1169" math="0" shadow="0">
      <root>
        <mxCell id="0" />
        <mxCell id="1" parent="0" />
        <mxCell id="APIB48E08MYiWX8zQM7Z-1" value="Boss" style="ellipse;whiteSpace=wrap;html=1;aspect=fixed;strokeWidth=3;fontSize=21;" vertex="1" parent="1">
          <mxGeometry x="390" y="90" width="60" height="60" as="geometry" />
        </mxCell>
        <mxCell id="APIB48E08MYiWX8zQM7Z-30" style="edgeStyle=orthogonalEdgeStyle;rounded=0;orthogonalLoop=1;jettySize=auto;html=1;entryX=0.5;entryY=0;entryDx=0;entryDy=0;" edge="1" parent="1" source="APIB48E08MYiWX8zQM7Z-3" target="APIB48E08MYiWX8zQM7Z-24">
          <mxGeometry relative="1" as="geometry" />
        </mxCell>
        <mxCell id="APIB48E08MYiWX8zQM7Z-32" value="&lt;span style=&quot;font-size: 21px;&quot;&gt;S&lt;/span&gt;" style="edgeLabel;html=1;align=center;verticalAlign=middle;resizable=0;points=[];" vertex="1" connectable="0" parent="APIB48E08MYiWX8zQM7Z-30">
          <mxGeometry x="-0.1241" y="2" relative="1" as="geometry">
            <mxPoint as="offset" />
          </mxGeometry>
        </mxCell>
        <mxCell id="APIB48E08MYiWX8zQM7Z-3" value="&lt;font style=&quot;font-size: 18px;&quot;&gt;Emp.&lt;/font&gt;" style="ellipse;whiteSpace=wrap;html=1;aspect=fixed;strokeWidth=3;fontSize=21;" vertex="1" parent="1">
          <mxGeometry x="250" y="190" width="60" height="60" as="geometry" />
        </mxCell>
        <mxCell id="APIB48E08MYiWX8zQM7Z-31" style="edgeStyle=orthogonalEdgeStyle;rounded=0;orthogonalLoop=1;jettySize=auto;html=1;entryX=0.5;entryY=0;entryDx=0;entryDy=0;" edge="1" parent="1" source="APIB48E08MYiWX8zQM7Z-5" target="APIB48E08MYiWX8zQM7Z-25">
          <mxGeometry relative="1" as="geometry" />
        </mxCell>
        <mxCell id="APIB48E08MYiWX8zQM7Z-33" value="&lt;font style=&quot;font-size: 21px;&quot;&gt;T&lt;/font&gt;" style="edgeLabel;html=1;align=center;verticalAlign=middle;resizable=0;points=[];" vertex="1" connectable="0" parent="APIB48E08MYiWX8zQM7Z-31">
          <mxGeometry x="-0.1667" relative="1" as="geometry">
            <mxPoint as="offset" />
          </mxGeometry>
        </mxCell>
        <mxCell id="APIB48E08MYiWX8zQM7Z-5" value="&lt;font style=&quot;font-size: 18px;&quot;&gt;Emp.&lt;/font&gt;" style="ellipse;whiteSpace=wrap;html=1;aspect=fixed;strokeWidth=3;fontSize=21;" vertex="1" parent="1">
          <mxGeometry x="530" y="190" width="60" height="60" as="geometry" />
        </mxCell>
        <mxCell id="APIB48E08MYiWX8zQM7Z-6" value="" style="group" vertex="1" connectable="0" parent="1">
          <mxGeometry x="280" y="140" width="90" height="30" as="geometry" />
        </mxCell>
        <mxCell id="APIB48E08MYiWX8zQM7Z-2" value="" style="endArrow=none;html=1;rounded=0;entryX=0;entryY=1;entryDx=0;entryDy=0;exitX=1;exitY=0;exitDx=0;exitDy=0;verticalAlign=middle;startArrow=blockThin;startFill=1;" edge="1" parent="APIB48E08MYiWX8zQM7Z-6" source="APIB48E08MYiWX8zQM7Z-3" target="APIB48E08MYiWX8zQM7Z-1">
          <mxGeometry width="50" height="50" relative="1" as="geometry">
            <mxPoint x="-20" y="60" as="sourcePoint" />
            <mxPoint x="160" y="170" as="targetPoint" />
          </mxGeometry>
        </mxCell>
        <mxCell id="APIB48E08MYiWX8zQM7Z-21" value="&lt;font style=&quot;font-size: 24px;&quot;&gt;N&lt;/font&gt;" style="edgeLabel;html=1;align=center;verticalAlign=middle;resizable=0;points=[];" vertex="1" connectable="0" parent="APIB48E08MYiWX8zQM7Z-2">
          <mxGeometry x="-0.1314" y="1" relative="1" as="geometry">
            <mxPoint as="offset" />
          </mxGeometry>
        </mxCell>
        <mxCell id="APIB48E08MYiWX8zQM7Z-15" value="" style="endArrow=none;html=1;rounded=0;entryX=1;entryY=1;entryDx=0;entryDy=0;exitX=0;exitY=0;exitDx=0;exitDy=0;startArrow=blockThin;startFill=1;" edge="1" parent="1" source="APIB48E08MYiWX8zQM7Z-5" target="APIB48E08MYiWX8zQM7Z-1">
          <mxGeometry width="50" height="50" relative="1" as="geometry">
            <mxPoint x="311" y="209" as="sourcePoint" />
            <mxPoint x="409" y="151" as="targetPoint" />
          </mxGeometry>
        </mxCell>
        <mxCell id="APIB48E08MYiWX8zQM7Z-22" value="&lt;font style=&quot;font-size: 21px;&quot;&gt;W&lt;/font&gt;" style="edgeLabel;html=1;align=center;verticalAlign=middle;resizable=0;points=[];" vertex="1" connectable="0" parent="APIB48E08MYiWX8zQM7Z-15">
          <mxGeometry x="0.158" y="-1" relative="1" as="geometry">
            <mxPoint as="offset" />
          </mxGeometry>
        </mxCell>
        <mxCell id="APIB48E08MYiWX8zQM7Z-34" value="&lt;font style=&quot;font-size: 21px;&quot;&gt;F&lt;/font&gt;" style="edgeStyle=orthogonalEdgeStyle;rounded=0;orthogonalLoop=1;jettySize=auto;html=1;entryX=0.5;entryY=0;entryDx=0;entryDy=0;" edge="1" parent="1" source="APIB48E08MYiWX8zQM7Z-24" target="APIB48E08MYiWX8zQM7Z-27">
          <mxGeometry relative="1" as="geometry" />
        </mxCell>
        <mxCell id="APIB48E08MYiWX8zQM7Z-24" value="Boss" style="ellipse;whiteSpace=wrap;html=1;aspect=fixed;strokeWidth=3;fontSize=21;" vertex="1" parent="1">
          <mxGeometry x="250" y="330" width="60" height="60" as="geometry" />
        </mxCell>
        <mxCell id="APIB48E08MYiWX8zQM7Z-35" value="&lt;font style=&quot;font-size: 21px;&quot;&gt;Ft&lt;/font&gt;" style="edgeStyle=orthogonalEdgeStyle;rounded=0;orthogonalLoop=1;jettySize=auto;html=1;entryX=0.5;entryY=0;entryDx=0;entryDy=0;" edge="1" parent="1" source="APIB48E08MYiWX8zQM7Z-25" target="APIB48E08MYiWX8zQM7Z-28">
          <mxGeometry relative="1" as="geometry" />
        </mxCell>
        <mxCell id="APIB48E08MYiWX8zQM7Z-25" value="Boss" style="ellipse;whiteSpace=wrap;html=1;aspect=fixed;strokeWidth=3;fontSize=21;" vertex="1" parent="1">
          <mxGeometry x="530" y="330" width="60" height="60" as="geometry" />
        </mxCell>
        <mxCell id="APIB48E08MYiWX8zQM7Z-27" value="&lt;font style=&quot;font-size: 18px;&quot;&gt;Emp.&lt;/font&gt;" style="ellipse;whiteSpace=wrap;html=1;aspect=fixed;strokeWidth=3;fontSize=21;" vertex="1" parent="1">
          <mxGeometry x="250" y="470" width="60" height="60" as="geometry" />
        </mxCell>
        <mxCell id="APIB48E08MYiWX8zQM7Z-28" value="&lt;font style=&quot;font-size: 18px;&quot;&gt;Emp.&lt;/font&gt;" style="ellipse;whiteSpace=wrap;html=1;aspect=fixed;strokeWidth=3;fontSize=21;" vertex="1" parent="1">
          <mxGeometry x="530" y="470" width="60" height="60" as="geometry" />
        </mxCell>
        <mxCell id="APIB48E08MYiWX8zQM7Z-36" value="" style="rounded=0;whiteSpace=wrap;html=1;strokeWidth=3;" vertex="1" parent="1">
          <mxGeometry x="110" y="200" width="70" height="40" as="geometry" />
        </mxCell>
      </root>
    </mxGraphModel>
  </diagram>
</mxfile>
